<?xml version="1.0" encoding="UTF-8"?>
<svg xmlns="http://www.w3.org/2000/svg" xmlns:xlink="http://www.w3.org/1999/xlink" width="100pt" height="100pt" viewBox="0 0 100 100" version="1.1">
<g id="surface1">
<path style="fill-rule:nonzero;fill:rgb(40.392157%,23.137255%,71.764706%);fill-opacity:1;stroke-width:5;stroke-linecap:butt;stroke-linejoin:miter;stroke:rgb(56.862745%,56.862745%,56.862745%);stroke-opacity:1;stroke-miterlimit:4;" d="M 290 80 C 331.992188 80 360 108.007812 360 150 L 360 360 L 150 360 C 108.007812 360 80 331.992188 80 290 L 80 80 L 290 80 M 290 10 L 10 10 L 10 290 C 10 366.992188 73.007812 430 150 430 L 430 430 L 430 150 C 430 73.007812 366.992188 10 290 10 Z M 290 10 " transform="matrix(0.1,0,0,0.1,0,0)"/>
<path style="fill-rule:nonzero;fill:rgb(40.392157%,23.137255%,71.764706%);fill-opacity:1;stroke-width:5;stroke-linecap:butt;stroke-linejoin:miter;stroke:rgb(56.862745%,56.862745%,56.862745%);stroke-opacity:1;stroke-miterlimit:4;" d="M 920 80 L 920 290 C 920 331.992188 891.992188 360 850 360 L 640 360 L 640 150 C 640 108.007812 668.007812 80 710 80 L 920 80 M 990 10 L 710 10 C 633.007812 10 570 73.007812 570 150 L 570 430 L 850 430 C 926.992188 430 990 366.992188 990 290 Z M 990 10 " transform="matrix(0.1,0,0,0.1,0,0)"/>
<path style="fill-rule:nonzero;fill:rgb(40.392157%,23.137255%,71.764706%);fill-opacity:1;stroke-width:5;stroke-linecap:butt;stroke-linejoin:miter;stroke:rgb(56.862745%,56.862745%,56.862745%);stroke-opacity:1;stroke-miterlimit:4;" d="M 360 640 L 360 850 C 360 891.992188 331.992188 920 290 920 L 80 920 L 80 710 C 80 668.007812 108.007812 640 150 640 L 360 640 M 430 570 L 150 570 C 73.007812 570 10 633.007812 10 710 L 10 990 L 290 990 C 366.992188 990 430 926.992188 430 850 Z M 430 570 " transform="matrix(0.1,0,0,0.1,0,0)"/>
<path style="fill-rule:nonzero;fill:rgb(40.392157%,23.137255%,71.764706%);fill-opacity:1;stroke-width:5;stroke-linecap:butt;stroke-linejoin:miter;stroke:rgb(56.862745%,56.862745%,56.862745%);stroke-opacity:1;stroke-miterlimit:4;" d="M 850 570 L 570 570 L 570 850 C 570 926.992188 633.007812 990 710 990 L 990 990 L 990 710 C 990 633.007812 926.992188 570 850 570 Z M 850 570 " transform="matrix(0.1,0,0,0.1,0,0)"/>
</g>
</svg>
