<?xml version="1.0" encoding="UTF-8"?>
<svg xmlns="http://www.w3.org/2000/svg" xmlns:xlink="http://www.w3.org/1999/xlink" width="76pt" height="76pt" viewBox="0 0 76 76" version="1.1">
<g id="surface1">
<path style="fill-rule:nonzero;fill:rgb(40.392157%,23.137255%,71.764706%);fill-opacity:1;stroke-width:5;stroke-linecap:butt;stroke-linejoin:miter;stroke:rgb(56.862745%,56.862745%,56.862745%);stroke-opacity:1;stroke-miterlimit:4;" d="M 289.987664 79.975329 C 331.979852 79.975329 359.991776 107.987253 359.991776 149.979441 L 359.991776 359.991776 L 149.979441 359.991776 C 107.987253 359.991776 79.975329 331.979852 79.975329 289.987664 L 79.975329 79.975329 L 289.987664 79.975329 M 289.987664 10.022615 L 10.022615 10.022615 L 10.022615 289.987664 C 10.022615 366.981908 72.985197 429.995888 149.979441 429.995888 L 429.995888 429.995888 L 429.995888 149.979441 C 429.995888 72.985197 366.981908 10.022615 289.987664 10.022615 Z M 289.987664 10.022615 " transform="matrix(0.076,0,0,0.076,0,0)"/>
<path style="fill-rule:nonzero;fill:rgb(40.392157%,23.137255%,71.764706%);fill-opacity:1;stroke-width:5;stroke-linecap:butt;stroke-linejoin:miter;stroke:rgb(56.862745%,56.862745%,56.862745%);stroke-opacity:1;stroke-miterlimit:4;" d="M 920.024671 79.975329 L 920.024671 289.987664 C 920.024671 331.979852 892.012747 359.991776 850.020559 359.991776 L 640.008224 359.991776 L 640.008224 149.979441 C 640.008224 107.987253 668.020148 79.975329 710.012336 79.975329 L 920.024671 79.975329 M 989.977385 10.022615 L 710.012336 10.022615 C 633.018092 10.022615 570.004112 72.985197 570.004112 149.979441 L 570.004112 429.995888 L 850.020559 429.995888 C 927.014803 429.995888 989.977385 366.981908 989.977385 289.987664 Z M 989.977385 10.022615 " transform="matrix(0.076,0,0,0.076,0,0)"/>
<path style="fill-rule:nonzero;fill:rgb(40.392157%,23.137255%,71.764706%);fill-opacity:1;stroke-width:5;stroke-linecap:butt;stroke-linejoin:miter;stroke:rgb(56.862745%,56.862745%,56.862745%);stroke-opacity:1;stroke-miterlimit:4;" d="M 359.991776 640.008224 L 359.991776 850.020559 C 359.991776 892.012747 331.979852 920.024671 289.987664 920.024671 L 79.975329 920.024671 L 79.975329 710.012336 C 79.975329 668.020148 107.987253 640.008224 149.979441 640.008224 L 359.991776 640.008224 M 429.995888 570.004112 L 149.979441 570.004112 C 72.985197 570.004112 10.022615 633.018092 10.022615 710.012336 L 10.022615 989.977385 L 289.987664 989.977385 C 366.981908 989.977385 429.995888 927.014803 429.995888 850.020559 Z M 429.995888 570.004112 " transform="matrix(0.076,0,0,0.076,0,0)"/>
<path style="fill-rule:nonzero;fill:rgb(40.392157%,23.137255%,71.764706%);fill-opacity:1;stroke-width:5;stroke-linecap:butt;stroke-linejoin:miter;stroke:rgb(56.862745%,56.862745%,56.862745%);stroke-opacity:1;stroke-miterlimit:4;" d="M 850.020559 570.004112 L 570.004112 570.004112 L 570.004112 850.020559 C 570.004112 927.014803 633.018092 989.977385 710.012336 989.977385 L 989.977385 989.977385 L 989.977385 710.012336 C 989.977385 633.018092 927.014803 570.004112 850.020559 570.004112 Z M 850.020559 570.004112 " transform="matrix(0.076,0,0,0.076,0,0)"/>
</g>
</svg>
